<svg width="20" height="23" viewBox="0 0 20 23" fill="none" xmlns="http://www.w3.org/2000/svg">
<g clip-path="url(#clip0_105_5628)">
<path d="M10 2.85714C11.9732 2.85714 13.5714 4.45536 13.5714 6.42857V8.57143H6.42857V6.42857C6.42857 4.45536 8.02679 2.85714 10 2.85714ZM3.57143 6.42857V8.57143H2.85714C1.28125 8.57143 0 9.85268 0 11.4286V20C0 21.5759 1.28125 22.8571 2.85714 22.8571H17.1429C18.7188 22.8571 20 21.5759 20 20V11.4286C20 9.85268 18.7188 8.57143 17.1429 8.57143H16.4286V6.42857C16.4286 2.87946 13.5491 0 10 0C6.45089 0 3.57143 2.87946 3.57143 6.42857ZM11.4286 14.2857V17.1429C11.4286 17.933 10.7902 18.5714 10 18.5714C9.20982 18.5714 8.57143 17.933 8.57143 17.1429V14.2857C8.57143 13.4955 9.20982 12.8571 10 12.8571C10.7902 12.8571 11.4286 13.4955 11.4286 14.2857Z" fill="#696F8C"/>
</g>
<defs>
<clipPath id="clip0_105_5628">
<rect width="20" height="22.8571" fill="white"/>
</clipPath>
</defs>
</svg>
